<svg width="66" height="108" viewBox="0 0 66 108" xmlns="http://www.w3.org/2000/svg" xmlns:sketch="http://www.bohemiancoding.com/sketch/ns"><title>parachute 2</title><desc>Created with Sketch.</desc><g sketch:type="MSShapeGroup" fill="#fff"><path d="M18.975 76.751c-.547 0-1.074-.3-1.339-.821l-16.636-32.809c-.375-.739-.079-1.642.66-2.016.736-.375 1.641-.08 2.016.66l16.636 32.808c.375.739.079 1.642-.66 2.017-.217.109-.449.161-.677.161zM46.938 76.4c-.23 0-.463-.053-.682-.164-.738-.378-1.03-1.281-.653-2.019l16.597-32.458c.378-.738 1.283-1.028 2.019-.652.738.377 1.03 1.281.653 2.019l-16.598 32.457c-.265.52-.792.817-1.336.817zM33.042 70.579c-.829 0-1.5-.672-1.5-1.5v-13.861c0-.829.671-1.5 1.5-1.5s1.5.671 1.5 1.5v13.861c0 .828-.671 1.5-1.5 1.5zM32.973 56.58c-.497 0-.961-.246-1.241-.657-5.495-8.087-14.601-12.916-24.36-12.916-1.63 0-3.303.144-4.971.428-.424.074-.857-.041-1.192-.31-.335-.269-.538-.669-.558-1.098-.024-.521-.04-1.044-.04-1.571 0-17.881 14.548-32.429 32.431-32.429 17.882 0 32.43 14.547 32.43 32.429 0 .536-.017 1.071-.043 1.6-.021.429-.227.829-.562 1.097-.335.269-.769.38-1.194.305-11.679-2.044-23.021 2.991-29.458 12.465-.281.411-.745.657-1.242.657zm-25.601-16.573c10.048 0 19.469 4.646 25.601 12.525 6.132-7.879 15.552-12.525 25.601-12.525 1.284 0 2.59.081 3.897.241-.113-16.132-13.271-29.221-29.429-29.221-16.153 0-29.308 13.08-29.43 29.203 1.263-.148 2.522-.223 3.76-.223z" id="Shape"/><g id="Shape"><path d="M19.145 93.478c-.829 0-1.5-.672-1.5-1.5v-16.228c0-.828.671-1.5 1.5-1.5s1.5.672 1.5 1.5v16.228c0 .828-.672 1.5-1.5 1.5zM32.957 99.973c-.194 0-.392-.037-.582-.118l-13.812-5.82c-.763-.321-1.122-1.201-.8-1.964.322-.764 1.203-1.124 1.965-.8l13.812 5.82c.763.321 1.122 1.201.799 1.964-.241.573-.797.918-1.382.918zM46.938 93.478c-.828 0-1.5-.672-1.5-1.5v-16.228c0-.828.672-1.5 1.5-1.5s1.5.672 1.5 1.5v16.228c0 .828-.671 1.5-1.5 1.5zM33.125 99.973c-.585 0-1.141-.345-1.383-.918-.322-.763.037-1.643.8-1.964l13.815-5.82c.765-.326 1.644.037 1.964.8.322.763-.036 1.643-.8 1.964l-13.814 5.82c-.191.081-.388.118-.582.118zM32.957 83.381c-.194 0-.392-.037-.582-.117l-13.812-5.817c-.764-.322-1.122-1.201-.8-1.965.321-.764 1.203-1.122 1.964-.801l13.812 5.817c.764.322 1.122 1.201.801 1.965-.242.573-.798.918-1.383.918zM33.125 83.381c-.585 0-1.142-.345-1.383-.918-.322-.764.037-1.643.8-1.965l13.814-5.817c.769-.321 1.643.038 1.965.801.321.764-.037 1.643-.801 1.965l-13.814 5.817c-.19.08-.387.117-.581.117zM46.938 76.4c-.194 0-.392-.037-.581-.118l-13.815-5.821c-.763-.321-1.122-1.201-.8-1.964.322-.764 1.202-1.124 1.965-.8l13.814 5.821c.764.321 1.122 1.201.8 1.964-.242.574-.798.918-1.383.918zM18.974 76.4c-.587 0-1.146-.347-1.385-.924-.318-.765.043-1.643.808-1.961l13.983-5.821c.764-.317 1.642.042 1.961.809.318.765-.044 1.643-.808 1.961l-13.983 5.821c-.188.078-.383.115-.576.115zM33.124 99.973c-.829 0-1.5-.672-1.5-1.5v-16.592c0-.828.671-1.5 1.5-1.5s1.5.672 1.5 1.5v16.592c0 .828-.671 1.5-1.5 1.5z"/></g><g><path d="M20.41 12.188l-16.874 29.556c1.177-.146 2.373-.227 3.588-.233l17.626-30.874c-1.495.41-2.944.93-4.34 1.551zM37.215 9.826c-1.083-.149-2.183-.241-3.298-.274l-18.816 32.954c.997.26 1.969.576 2.924.93l19.19-33.61zM47.355 13.083c-.886-.466-1.796-.891-2.729-1.271l-19.998 35.027c.836.567 1.643 1.174 2.417 1.818l20.31-35.574zM53.48 17.325l-21.13 37.01c.18.249.367.491.539.745 1.781-2.621 3.957-4.95 6.437-6.912l16.37-28.672c-.702-.76-1.442-1.484-2.216-2.171zM61.925 29.604c-.438-1.167-.947-2.299-1.517-3.395l-9.238 16.18c1.253-.304 2.535-.531 3.842-.677l6.913-12.108z"/></g></g></svg>