<?xml version="1.0" encoding="UTF-8" standalone="no"?>
<svg width="66px" height="108px" viewBox="0 0 66 108" version="1.1" xmlns="http://www.w3.org/2000/svg" xmlns:xlink="http://www.w3.org/1999/xlink" xmlns:sketch="http://www.bohemiancoding.com/sketch/ns">
    <!-- Generator: Sketch 3.1 (8751) - http://www.bohemiancoding.com/sketch -->
    <title>parachute 2</title>
    <desc>Created with Sketch.</desc>
    <defs></defs>
    <g id="Page-1" stroke="none" stroke-width="1" fill="none" fill-rule="evenodd" sketch:type="MSPage">
        <g id="parachute" sketch:type="MSLayerGroup" transform="translate(1.000000, 8.000000)" fill="#FFFFFF">
            <g id="Group" sketch:type="MSShapeGroup">
                <path d="M17.975,68.751 C17.428,68.751 16.901,68.451 16.636,67.93 L-2.33146835e-15,35.121 C-0.375,34.382 -0.079,33.479 0.66,33.105 C1.396,32.73 2.301,33.025 2.676,33.765 L19.312,66.573 C19.687,67.312 19.391,68.215 18.652,68.59 C18.435,68.699 18.203,68.751 17.975,68.751 L17.975,68.751 Z" id="Shape"></path>
                <path d="M45.938,68.4 C45.708,68.4 45.475,68.347 45.256,68.236 C44.518,67.858 44.226,66.955 44.603,66.217 L61.2,33.759 C61.578,33.021 62.483,32.731 63.219,33.107 C63.957,33.484 64.249,34.388 63.872,35.126 L47.274,67.583 C47.009,68.103 46.482,68.4 45.938,68.4 L45.938,68.4 Z" id="Shape"></path>
                <path d="M32.042,62.579 C31.213,62.579 30.542,61.907 30.542,61.079 L30.542,47.218 C30.542,46.389 31.213,45.718 32.042,45.718 C32.871,45.718 33.542,46.389 33.542,47.218 L33.542,61.079 C33.542,61.907 32.871,62.579 32.042,62.579 L32.042,62.579 Z" id="Shape"></path>
                <path d="M31.973,48.58 C31.476,48.58 31.012,48.334 30.732,47.923 C25.237,39.836 16.131,35.007 6.372,35.007 C4.742,35.007 3.069,35.151 1.401,35.435 C0.977,35.509 0.544,35.394 0.209,35.125 C-0.126,34.856 -0.329,34.456 -0.349,34.027 C-0.373,33.506 -0.389,32.983 -0.389,32.456 C-0.389,14.575 14.159,0.027 32.042,0.027 C49.924,0.027 64.472,14.574 64.472,32.456 C64.472,32.992 64.455,33.527 64.429,34.056 C64.408,34.485 64.202,34.885 63.867,35.153 C63.532,35.422 63.098,35.533 62.673,35.458 C50.994,33.414 39.652,38.449 33.215,47.923 C32.934,48.334 32.47,48.58 31.973,48.58 L31.973,48.58 Z M6.372,32.007 C16.42,32.007 25.841,36.653 31.973,44.532 C38.105,36.653 47.525,32.007 57.574,32.007 C58.858,32.007 60.164,32.088 61.471,32.248 C61.358,16.116 48.2,3.027 32.042,3.027 C15.889,3.027 2.734,16.107 2.612,32.23 C3.875,32.082 5.134,32.007 6.372,32.007 L6.372,32.007 Z" id="Shape"></path>
                <g transform="translate(16.000000, 60.000000)" id="Shape">
                    <path d="M2.145,25.478 C1.316,25.478 0.645,24.806 0.645,23.978 L0.645,7.75 C0.645,6.922 1.316,6.25 2.145,6.25 C2.974,6.25 3.645,6.922 3.645,7.75 L3.645,23.978 C3.645,24.806 2.973,25.478 2.145,25.478 L2.145,25.478 Z"></path>
                    <path d="M15.957,31.973 C15.763,31.973 15.565,31.936 15.375,31.855 L1.563,26.035 C0.8,25.714 0.441,24.834 0.763,24.071 C1.085,23.307 1.966,22.947 2.728,23.271 L16.54,29.091 C17.303,29.412 17.662,30.292 17.339,31.055 C17.098,31.628 16.542,31.973 15.957,31.973 L15.957,31.973 Z"></path>
                    <path d="M29.938,25.478 C29.11,25.478 28.438,24.806 28.438,23.978 L28.438,7.75 C28.438,6.922 29.11,6.25 29.938,6.25 C30.766,6.25 31.438,6.922 31.438,7.75 L31.438,23.978 C31.438,24.806 30.767,25.478 29.938,25.478 L29.938,25.478 Z"></path>
                    <path d="M16.125,31.973 C15.54,31.973 14.984,31.628 14.742,31.055 C14.42,30.292 14.779,29.412 15.542,29.091 L29.357,23.271 C30.122,22.945 31.001,23.308 31.321,24.071 C31.643,24.834 31.285,25.714 30.521,26.035 L16.707,31.855 C16.516,31.936 16.319,31.973 16.125,31.973 L16.125,31.973 Z"></path>
                    <path d="M15.957,15.381 C15.763,15.381 15.565,15.344 15.375,15.264 L1.563,9.447 C0.799,9.125 0.441,8.246 0.763,7.482 C1.084,6.718 1.966,6.36 2.727,6.681 L16.539,12.498 C17.303,12.82 17.661,13.699 17.34,14.463 C17.098,15.036 16.542,15.381 15.957,15.381 L15.957,15.381 Z"></path>
                    <path d="M16.125,15.381 C15.54,15.381 14.983,15.036 14.742,14.463 C14.42,13.699 14.779,12.82 15.542,12.498 L29.356,6.681 C30.125,6.36 30.999,6.719 31.321,7.482 C31.642,8.246 31.284,9.125 30.52,9.447 L16.706,15.264 C16.516,15.344 16.319,15.381 16.125,15.381 L16.125,15.381 Z"></path>
                    <path d="M29.938,8.4 C29.744,8.4 29.546,8.363 29.357,8.282 L15.542,2.461 C14.779,2.14 14.42,1.26 14.742,0.497 C15.064,-0.267 15.944,-0.627 16.707,-0.303 L30.521,5.518 C31.285,5.839 31.643,6.719 31.321,7.482 C31.079,8.056 30.523,8.4 29.938,8.4 L29.938,8.4 Z"></path>
                    <path d="M1.974,8.4 C1.387,8.4 0.828,8.053 0.589,7.476 C0.271,6.711 0.632,5.833 1.397,5.515 L15.38,-0.306 C16.144,-0.623 17.022,-0.264 17.341,0.503 C17.659,1.268 17.297,2.146 16.533,2.464 L2.55,8.285 C2.362,8.363 2.167,8.4 1.974,8.4 L1.974,8.4 Z"></path>
                    <path d="M16.124,31.973 C15.295,31.973 14.624,31.301 14.624,30.473 L14.624,13.881 C14.624,13.053 15.295,12.381 16.124,12.381 C16.953,12.381 17.624,13.053 17.624,13.881 L17.624,30.473 C17.624,31.301 16.953,31.973 16.124,31.973 L16.124,31.973 Z"></path>
                </g>
                <g transform="translate(3.000000, 2.000000)" id="Shape">
                    <path d="M16.41,2.188 L-0.464,31.744 C0.713,31.598 1.909,31.517 3.124,31.511 L20.75,0.637 C19.255,1.047 17.806,1.567 16.41,2.188 L16.41,2.188 Z"></path>
                    <path d="M33.215,-0.174 C32.132,-0.323 31.032,-0.415 29.917,-0.448 L11.101,32.506 C12.098,32.766 13.07,33.082 14.025,33.436 L33.215,-0.174 L33.215,-0.174 Z"></path>
                    <path d="M43.355,3.083 C42.469,2.617 41.559,2.192 40.626,1.812 L20.628,36.839 C21.464,37.406 22.271,38.013 23.045,38.657 L43.355,3.083 L43.355,3.083 Z"></path>
                    <path d="M49.48,7.325 L28.35,44.335 C28.53,44.584 28.717,44.826 28.889,45.08 C30.67,42.459 32.846,40.13 35.326,38.168 L51.696,9.496 C50.994,8.736 50.254,8.012 49.48,7.325 L49.48,7.325 Z"></path>
                    <path d="M57.925,19.604 C57.487,18.437 56.978,17.305 56.408,16.209 L47.17,32.389 C48.423,32.085 49.705,31.858 51.012,31.712 L57.925,19.604 L57.925,19.604 Z"></path>
                </g>
            </g>
        </g>
    </g>
</svg>